<?xml version="1.0" encoding="utf-8"?>
<!-- Svg Vector Icons : http://www.onlinewebfonts.com/icon -->
<!DOCTYPE svg PUBLIC "-//W3C//DTD SVG 1.1//EN" "http://www.w3.org/Graphics/SVG/1.1/DTD/svg11.dtd">
<svg version="1.1" xmlns="http://www.w3.org/2000/svg" xmlns:xlink="http://www.w3.org/1999/xlink" x="0px" y="0px" viewBox="0 0 1000 1000" enable-background="new 0 0 1000 1000" xml:space="preserve">
<metadata> Svg Vector Icons : http://www.onlinewebfonts.com/icon </metadata>
<g><g transform="translate(0.000000,512.000000) scale(0.100000,-0.100000)"><path d="M4857.3,4971.2c-63.2-30.6-1063.3-515.4-2222.3-1076.7S439.4,2831.2,332.1,2779.5C113.7,2674.1,71.6,2622.4,115.6,2517c23-57.5,82.4-90,434.9-233.7l159-63.2V1160.6V101.2l-95.8-47.9c-137.9-69-214.6-145.6-289.3-281.6c-55.6-107.3-63.2-137.9-63.2-264.4c0-126.4,7.7-157.1,63.2-264.4c205-379.3,662.9-454.1,959.8-157.1c120.7,120.7,182,266.3,180.1,431.1c0,226.1-130.3,423.4-352.5,536.4l-95.8,47.9v998.1c0,547.9,5.7,992.4,15.3,988.6c7.7-5.7,172.4-76.6,367.8-157.1c195.4-80.5,394.7-164.8,446.4-185.8l90-38.3V990.2V273.6h153.3h153.3V1061v789.3l69,63.2c251,239.5,954.1,488.5,1655.3,590.1c800.8,116.9,1747.2,86.2,2490.6-76.6c530.7-118.8,1038.4-329.5,1233.8-513.4l69-63.2V1061V273.6H7913h153.3v716.5v716.5l92,38.3c49.8,21.1,404.2,168.6,789.3,329.5c948.3,394.7,911.9,377.4,938.8,442.6c38.3,92-1.9,157.1-139.9,224.1c-65.1,32.6-1143.7,553.7-2398.6,1162.9c-1254.9,607.3-2300.9,1107.3-2327.7,1113.1C4991.4,5022.9,4928.1,5005.7,4857.3,4971.2z M6993.4,3739.3c1090.1-528.8,2072.9-1002,2182.1-1053.7c109.2-51.7,195.4-99.6,189.7-105.4s-316.1-137.9-687.8-293.1l-678.2-283.6l-95.8,95.8c-183.9,187.8-503.9,360.2-906.2,492.4c-1626.5,532.6-4132.4,279.7-4902.6-494.3l-92-93.9l-678.2,283.6c-371.7,155.2-680.1,287.4-685.9,293.1c-5.7,3.8,170.5,95.8,390.8,201.2c218.4,107.3,1195.5,580.5,2170.6,1053.7c975.1,473.2,1781.7,860.2,1791.3,862.1C5002.9,4699.1,5903.3,4268.1,6993.4,3739.3z M1050.5-236c84.3-63.2,122.6-155.2,113-281.6c-11.5-191.6-126.4-289.3-325.7-275.9C646.3-782,548.6-667,562-467.8c7.7,126.5,49.8,197.3,149.4,249.1C797.7-172.8,975.8-182.3,1050.5-236z"/><path d="M4234.6,1959.5v-153.3h153.3h153.3v153.3v153.3h-153.3h-153.3V1959.5z"/><path d="M4847.7,1959.5v-153.3h153.3h153.3v153.3v153.3h-153.3h-153.3V1959.5z"/><path d="M5460.7,1959.5v-153.3H5614h153.3v153.3v153.3H5614h-153.3V1959.5z"/><path d="M4675.2,1325.4C2880.1,1122.3,1621.5-619.1,2010.4-2366.4c254.8-1136.1,1134.2-2034.6,2274.1-2323.9c1454.1-365.9,2996.3,438.7,3561.5,1858.3c421.5,1061.3,212.7,2241.5-551.7,3124.7C6652.4,1034.2,5637,1434.6,4675.2,1325.4z M4847.7,417.3v-603.5h-90c-216.5,1.9-804.6,69-850.6,97.7c-19.2,11.5-11.5,47.9,38.3,164.8c141.8,327.6,352.5,626.5,542.2,770.2c101.5,74.7,291.2,174.3,337.2,174.3C4841.9,1020.8,4847.7,886.7,4847.7,417.3z M5345.8,951.8c162.9-82.4,352.5-258.6,477.1-444.5c82.4-122.6,289.3-530.7,289.3-572.8c0-11.5-15.3-26.8-32.6-32.6c-65.1-19.2-475.1-67.1-699.3-80.5l-226.1-13.4v607.3c0,498.1,3.8,605.4,26.8,605.4C5194.4,1020.8,5269.1,990.2,5345.8,951.8z M4025.8,764.1c-134.1-176.3-237.6-358.3-339.1-588.2c-49.8-109.2-90-201.2-92-203.1c-7.7-9.6-291.2,72.8-457.9,132.2l-168.6,59.4l82.4,84.3c88.1,92,337.2,289.3,467.5,373.6c157.1,99.6,576.7,293.1,597.7,274C4119.7,894.4,4079.4,835,4025.8,764.1z M6265.4,743c203.1-101.5,459.8-281.6,628.4-440.6l145.6-136L6866.9,105c-201.2-70.9-452.1-141.8-463.6-128.4c-3.8,3.8-36.4,78.6-72.8,162.8c-82.4,203.1-218.4,444.5-346.8,613.1c-55.6,74.7-101.5,139.8-101.5,145.6C5882.2,911.6,6117.9,817.7,6265.4,743z M3064.1-184.2c153.3-53.7,316.1-105.4,362.1-116.9c65.1-17.2,80.5-28.7,70.9-55.5c-63.2-201.2-136-647.6-174.3-1078.6l-11.5-130.3h-536.4h-536.4l13.4,120.7c36.4,341,137.9,693.5,281.6,979C2634.9-262.8,2746-90.4,2774.8-90.4C2778.6-90.4,2908.9-132.5,3064.1-184.2z M7326.7-218.7c231.8-360.2,377.4-781.7,423.4-1226.1l11.5-120.7h-536.4h-534.5l-11.5,130.3c-38.3,431.1-111.1,877.5-174.3,1078.6c-9.6,26.8,5.7,38.3,70.9,55.5c126.4,34.5,477,151.4,542.2,182C7219.4-73.1,7238.6-82.7,7326.7-218.7z M4071.8-423.7c172.4-24.9,655.2-69,752.9-69c17.3,0,23-120.7,23-536.4v-536.4h-615h-616.9l13.4,197.3c17.2,262.5,63.2,578.6,111.1,789.3c46,203.1,47.9,205,88.1,193.5C3847.6-391.2,3956.8-408.4,4071.8-423.7z M6250-523.3c44.1-172.4,105.4-595.8,122.6-844.9l13.4-197.3h-616.9h-615v534.5v534.5l168.6,13.4c272.1,19.2,559.4,49.8,712.7,76.6c78.5,13.4,151.4,23,162.8,19.2C6207.9-389.2,6230.9-450.5,6250-523.3z M3322.7-2000.4c38.3-433,111.1-879.3,174.3-1080.5c9.6-26.8-5.7-38.3-70.9-55.6c-46-11.5-208.8-63.2-364-116.9c-155.2-51.7-287.4-93.9-291.2-93.9c-19.2,0-162.8,226.1-235.6,373.6c-145.6,287.4-247.1,639.9-283.5,982.8l-13.4,118.8h536.4h536.4L3322.7-2000.4z M4847.7-2406.6v-534.5l-166.7-13.4c-298.9-21.1-586.2-51.7-733.8-76.6c-78.5-13.4-149.4-19.2-155.2-13.4c-42.1,44.1-137.9,622.6-162.8,977.1l-13.4,195.4h616.9h615V-2406.6z M6372.6-2067.5c-24.9-358.2-120.7-933-162.8-977.1c-5.7-5.7-76.6,0-155.2,13.4c-147.5,24.9-434.9,55.6-731.8,76.6l-168.6,13.4v534.5v534.5h615h616.9L6372.6-2067.5z M7750.1-1990.9c-36.4-333.3-137.9-695.4-272.1-963.6c-72.8-141.8-228-392.7-245.2-392.7c-5.7,0-137.9,42.1-293.1,93.9c-155.2,53.6-320,105.4-364,116.9c-55.6,15.3-80.5,30.6-74.7,46c53.6,139.8,166.7,812.3,166.7,994.3c0,44.1,5.7,113,11.5,153.3l13.4,70.9h534.5h536.4L7750.1-1990.9z M4847.7-3854.9c0-498.1-3.8-603.5-26.8-603.5c-13.4,0-88.1,30.6-164.8,69c-256.7,128.4-467.5,377.4-662.9,779.7c-111.1,231.8-116.9,252.9-76.6,268.2c61.3,23,599.7,82.4,802.7,86.2l128.4,3.8V-3854.9z M5824.7-3301.3c254.8-32.6,287.4-40.2,287.4-70.9c0-42.1-206.9-450.2-289.3-572.8c-124.5-185.8-314.2-362.1-477.1-444.5c-76.6-38.3-151.3-69-164.7-69c-23,0-26.8,107.3-26.8,605.4v607.3l226.1-13.4C5502.9-3266.8,5704-3285.9,5824.7-3301.3z M3686.7-3615.5c93.9-216.5,251-484.7,367.8-626.5c36.4-44.1,65.1-84.3,65.1-90c0-17.2-222.2,70.9-375.5,147.5c-205,103.5-465.5,283.5-630.3,438.7l-147.5,137.9l82.4,36.4c70.9,28.7,500,162.8,536.4,166.7C3590.9-3404.7,3636.9-3498.6,3686.7-3615.5z M6552.7-3443c78.5-21.1,220.3-67.1,314.2-99.6l172.4-61.3l-153.3-141.8c-243.3-228-580.5-438.7-885.1-551.7c-65.1-24.9-124.5-46-128.4-46c-5.8,0,30.7,51.7,82.4,113c151.4,187.7,352.5,555.6,431.1,793.1C6401.4-3397.1,6382.2-3397.1,6552.7-3443z"/></g></g>
</svg>